<svg xmlns="http://www.w3.org/2000/svg" xml:space="preserve" stroke-miterlimit="10" style="fill-rule:nonzero;clip-rule:evenodd;stroke-linecap:round;stroke-linejoin:round" viewBox="0 0 1024 1024"><g id="Ebene-1"><path fill="#f8550b" d="M759.6 318.3c54.1 0 108.3-1.9 162.5 0 4.5.2 8.4 3.5 12.1 6 27.8 19.3 10.2 72 7.6 94.2-.2 2.1.5 5.8-1.5 6.1-148.8 25.2-302.4 22.7-451 48.6-3.2.6-6.6 3-7.6 6-8.8 25.9-14.7 52.6-21.3 79-11.6 46.6-21.3 96.2-21.3 144.3q18.8-60.9 38-121.5c7.7-24.7 10.9-51.4 22.8-74.4 13.8-26.7 58.2-16.4 88-19.7q103.3-11.6 206.6-22.8c48-5.2 96-11 144.3-15.2 11-1 45.9-6 50 15.2 7 34.3-12.7 92.9-18.1 123-8.6 47-13.4 95-25.9 141.2-6.8 25.4-34.4 30.6-56.1 33.4-41.5 5.5-83 10.1-124.6 15.2L620 795.1q-77 9.6-153.5 19.9c-14.4 1.9-30.2 6-42.5-4.6-.4-.3-10.6-11.5-10.7-16.7q-.8-77.4 0-154.9.9-61.5 3-123c.8-21.3 1-42.6 3.1-63.8.7-7.1 4.9-16.3 10.6-21.2 24.5-20.7 60.7-12.8 89.6-13.7 55.9-1.8 113 1.3 168.6-4.5 14.8-1.6 49.6-77.7 71.4-94.2"/><path fill="#542389" d="M372 189C149.2 187.5-34 403.7 58 631.2A322 322 0 0 0 176.4 777c63.8 42.5 146.4 67.5 223.3 54.7v-3c-2.3-.8-16.5-17.2-16.7-30.4-1.4-69.4-.3-138.7 0-208 .2-48.2.1-96.3 1.5-144.3 2-70 95-57.2 136.7-57.7l151.8-1.6c0-19.2-23.7-47.5-35-62.2-47.4-62.6-118.4-111-195.8-127.6q-35.5-7.5-70.2-7.7m11 41.2c38.2 8.5 88 73.2 88 112.4-29.3-.7-58.7-1.3-88-3zm-42.6 1.5v107.9q-45.5 3.4-91 6c11.1-33.5 45-113.9 91-113.9m126 15.2c45 15 123.1 68.6 138.3 114-15.3-1.5-30.4-3.9-45.6-6.1-14.2-2.2-31.6 3.1-42.5-6.1C504.1 338 505 318 498.4 303c-9.7-21.8-21.6-35.5-32-56.2m-220 4.4q3 .3 6 1.7a417 417 0 0 0-35 62.3c-5.7 12.9-4.3 30.4-15.1 39.5-13 10.7-31.4 12.4-47.4 17.5-14.5 4.6-28.6 12.8-43.8 12.8 17.8-44.4 54.7-83 94.2-109.3 12.7-8.5 27.3-25.6 41.2-24.5M312 382h28.5v109.4H225c0-33.3-.3-67.7 9.1-100.2.6-1.8 2.8-2.8 4.6-3 15-2.3 30.3-3.3 45.5-4.6 12.5-1 20-1.5 27.7-1.6m-120.3 15.3c-4.8 31.2-8 62.7-10.6 94.1H82.3c0-18-.6-45.2 10.6-60.7 13.3-18.5 76.2-33.4 98.7-33.4m-110.9 132H181c2.9 31.2 6.7 61.7 10.6 92.7-72.3-7.2-105.3-20.4-110.9-92.6M225 531h115.4v106.3c-35 0-69.9-3-104.7-6C228.9 592 225 568.9 225 531M111.1 632.6c20.9 9.1 42 18 63.8 24.4 9.6 2.7 20.8 1.8 28.9 7.5 14.4 10.3 13.5 32.7 21.2 48.6 9 18.6 20 35 32 51.7-53.4-17.8-99.5-58.9-130.7-104.8-5.8-8.6-15.2-17-15.2-27.4m142.8 41q43.3 3.3 86.5 6.1V774c-39.8 0-80-67.5-86.5-100.2"/></g></svg>