<?xml version="1.0" encoding="UTF-8" standalone="no"?>
<!DOCTYPE svg PUBLIC "-//W3C//DTD SVG 1.1//EN" "http://www.w3.org/Graphics/SVG/1.1/DTD/svg11.dtd">
<!-- Created with Vectornator (http://vectornator.io/) -->
<svg height="1024.0pt" stroke-miterlimit="10" style="fill-rule:nonzero;clip-rule:evenodd;stroke-linecap:round;stroke-linejoin:round;" version="1.1" viewBox="0 0 1024 1024" width="1024.0pt" xml:space="preserve" xmlns="http://www.w3.org/2000/svg" xmlns:xlink="http://www.w3.org/1999/xlink">
<defs/>
<g id="Ebene-1">
<path d="M759.57 318.3C813.733 318.3 867.929 316.418 922.06 318.3C926.585 318.458 930.486 321.798 934.208 324.375C962.045 343.646 944.391 396.256 941.801 418.528C941.56 420.601 942.341 424.254 940.283 424.602C791.512 449.779 637.889 447.348 489.261 473.197C486.067 473.752 482.709 476.202 481.668 479.271C472.909 505.085 467.019 531.792 460.407 558.238C448.765 604.81 439.147 654.394 439.147 702.504C451.469 661.841 464.444 621.553 477.112 581.017C484.849 556.258 487.974 529.646 499.891 506.606C513.714 479.881 558.065 490.187 587.969 486.864C656.792 479.217 725.613 471.561 794.498 464.085C842.57 458.868 890.585 453.017 938.764 448.899C949.826 447.954 984.657 442.98 988.878 464.085C995.739 498.391 976.096 557.003 970.655 587.091C962.138 634.184 957.28 682.11 944.839 728.32C938.005 753.704 910.359 758.85 888.651 761.73C847.198 767.228 805.628 771.803 764.126 776.915C715.936 782.852 667.99 789.122 619.86 795.139C568.71 801.532 517.584 808.117 466.482 814.88C452.069 816.788 436.292 820.894 423.961 810.325C423.597 810.012 413.381 798.83 413.331 793.62C412.839 741.99 412.767 690.353 413.331 638.724C413.779 597.711 415.035 556.71 416.368 515.717C417.06 494.444 417.329 473.119 419.405 451.937C420.11 444.75 424.252 435.57 430.036 430.676C454.515 409.963 490.679 417.943 519.633 417.009C575.495 415.207 632.618 418.304 688.196 412.453C703.017 410.893 737.824 334.787 759.57 318.3Z" fill="#f8550b" fill-rule="nonzero" opacity="1" stroke="none"/>
<path d="M372.009 189.072C149.172 187.396-33.9923 403.613 57.9821 631.128C81.698 689.794 123.724 741.781 176.435 776.922C240.165 819.408 322.759 844.389 399.672 831.57C399.672 830.052 399.672 830.058 399.672 828.54C397.394 827.78 383.241 811.378 382.971 798.169C381.556 728.834 382.672 659.466 382.971 590.118C383.178 542.027 383.1 493.943 384.486 445.872C386.505 375.905 479.517 388.705 521.156 388.16C571.774 387.499 622.391 387.151 673.011 386.645C673.011 367.371 649.256 339.102 638.094 324.388C590.64 261.835 519.608 213.398 442.198 196.81C418.557 191.744 395.061 189.246 372.009 189.072ZM382.971 230.212C421.171 238.701 471.053 303.42 471.053 342.604C441.685 341.888 412.297 341.298 382.971 339.573C382.971 284.904 382.971 284.881 382.971 230.212ZM340.445 231.727C340.445 285.637 340.445 285.663 340.445 339.573C310.087 341.795 279.73 344.035 249.332 345.635C260.522 312.067 294.445 231.727 340.445 231.727ZM466.475 246.913C511.327 261.863 589.542 315.465 604.66 360.82C589.403 359.433 574.257 357.016 559.104 354.759C544.942 352.65 527.519 357.938 516.61 348.665C504.148 338.072 504.949 318.079 498.362 303.109C488.744 281.251 476.833 267.629 466.475 246.913ZM246.463 251.33C248.448 251.485 250.414 252.032 252.363 253.006C239.163 272.806 227.072 293.501 217.446 315.264C211.742 328.159 213.093 345.731 202.26 354.759C189.334 365.531 170.889 367.159 154.866 372.298C140.366 376.949 126.343 385.13 111.115 385.13C128.875 340.73 165.847 302.065 205.291 275.768C217.983 267.307 232.569 250.241 246.463 251.33ZM311.912 382.035C319.61 381.919 327.464 382.067 340.445 382.067C340.445 436.736 340.445 436.759 340.445 491.428C282.739 491.428 282.729 491.428 225.023 491.428C225.023 458.07 224.669 423.686 234.147 391.191C234.658 389.439 236.888 388.434 238.693 388.16C253.782 385.874 269.043 384.909 284.249 383.614C296.664 382.558 304.214 382.15 311.912 382.035ZM191.621 397.252C186.818 428.469 183.604 459.954 180.981 491.428C131.627 491.428 131.646 491.428 82.2918 491.428C82.2918 473.326 81.6722 446.231 92.8991 430.686C106.25 412.201 169.14 397.252 191.621 397.252ZM80.7443 529.376C130.858 529.376 130.868 529.376 180.981 529.376C183.904 560.545 187.747 591.014 191.621 622.004C119.338 614.776 86.3037 601.648 80.7443 529.376ZM225.023 530.891C282.729 530.891 282.739 530.891 340.445 530.891C340.445 584.042 340.445 584.039 340.445 637.19C305.459 637.19 270.511 634.226 235.662 631.128C228.937 591.901 225.023 568.752 225.023 530.891ZM111.115 632.644C131.979 641.715 153.067 650.627 174.92 656.953C184.473 659.719 195.66 658.781 203.776 664.53C218.204 674.75 217.298 697.245 225.023 713.149C234.019 731.671 245 748.095 256.909 764.767C203.638 747.01 157.459 705.932 126.333 659.984C120.487 651.354 111.115 643.067 111.115 632.644ZM253.878 673.654C282.725 675.765 311.577 677.911 340.445 679.716C340.445 726.792 340.445 726.815 340.445 773.891C300.577 773.891 260.434 706.435 253.878 673.654Z" fill="#542389" fill-rule="nonzero" opacity="1" stroke="none"/>
</g>
</svg>
